<?xml version="1.0" encoding="UTF-8" standalone="no"?>
<!-- Created with Inkscape (http://www.inkscape.org/) -->

<svg
   width="2048"
   height="1152"
   viewBox="0 0 541.86665 304.8"
   version="1.1"
   id="svg1"
   sodipodi:docname="Banner_MakaniMotion.svg"
   xml:space="preserve"
   inkscape:version="1.4.2 (f4327f4, 2025-05-13)"
   xmlns:inkscape="http://www.inkscape.org/namespaces/inkscape"
   xmlns:sodipodi="http://sodipodi.sourceforge.net/DTD/sodipodi-0.dtd"
   xmlns:xlink="http://www.w3.org/1999/xlink"
   xmlns="http://www.w3.org/2000/svg"
   xmlns:svg="http://www.w3.org/2000/svg"><sodipodi:namedview
     id="namedview1"
     pagecolor="#ffffff"
     bordercolor="#999999"
     borderopacity="1"
     inkscape:showpageshadow="2"
     inkscape:pageopacity="0"
     inkscape:pagecheckerboard="0"
     inkscape:deskcolor="#d1d1d1"
     inkscape:document-units="mm"
     inkscape:zoom="0.5198127"
     inkscape:cx="879.16282"
     inkscape:cy="578.09284"
     inkscape:window-width="2560"
     inkscape:window-height="1369"
     inkscape:window-x="1912"
     inkscape:window-y="-8"
     inkscape:window-maximized="1"
     inkscape:current-layer="layer1" /><defs
     id="defs1"><linearGradient
       id="linearGradient7"
       inkscape:collect="always"><stop
         style="stop-color:#b6bcc2;stop-opacity:1;"
         offset="0"
         id="stop7" /><stop
         style="stop-color:#e6e8ea;stop-opacity:1;"
         offset="0.5"
         id="stop8" /></linearGradient><rect
       x="-804.1358"
       y="313.57449"
       width="76.950794"
       height="65.408175"
       id="rect2-7" /><rect
       x="-720.96467"
       y="53.052118"
       width="408.09321"
       height="346.92526"
       id="rect1-9" /><rect
       x="-301.98897"
       y="553.64645"
       width="133.31045"
       height="66.655223"
       id="rect4" /><rect
       x="-242.395"
       y="350.12611"
       width="119.27373"
       height="126.96881"
       id="rect3" /><rect
       x="-804.1358"
       y="313.57449"
       width="76.950794"
       height="65.408175"
       id="rect2" /><rect
       x="-720.96467"
       y="53.052118"
       width="408.09321"
       height="346.92526"
       id="rect1-8" /><rect
       x="-301.98897"
       y="553.64645"
       width="133.31045"
       height="66.655223"
       id="rect4-8" /><rect
       x="-242.395"
       y="350.12611"
       width="119.27373"
       height="126.96881"
       id="rect3-2" /><rect
       x="-804.1358"
       y="313.57449"
       width="76.950794"
       height="65.408175"
       id="rect2-8" /><rect
       x="-720.96467"
       y="53.052118"
       width="408.09321"
       height="346.92526"
       id="rect1-82" /><rect
       x="-301.98897"
       y="553.64645"
       width="133.31045"
       height="66.655223"
       id="rect4-4" /><rect
       x="-242.395"
       y="350.12611"
       width="119.27373"
       height="126.96881"
       id="rect3-5" /><rect
       x="-804.1358"
       y="313.57449"
       width="76.950794"
       height="65.408175"
       id="rect2-4" /><rect
       x="-720.96467"
       y="53.052118"
       width="408.09321"
       height="346.92526"
       id="rect1" /><rect
       x="-301.98897"
       y="553.64645"
       width="133.31045"
       height="66.655223"
       id="rect4-6" /><rect
       x="-242.395"
       y="350.12611"
       width="119.27373"
       height="126.96881"
       id="rect3-0" /><rect
       x="-804.1358"
       y="313.57449"
       width="76.950794"
       height="65.408175"
       id="rect2-0" /><rect
       x="-720.96467"
       y="53.052118"
       width="408.09321"
       height="346.92526"
       id="rect1-1" /><rect
       x="-301.98897"
       y="553.64645"
       width="133.31045"
       height="66.655223"
       id="rect4-2" /><rect
       x="-242.395"
       y="350.12611"
       width="119.27373"
       height="126.96881"
       id="rect3-50" /><rect
       x="-804.1358"
       y="313.57449"
       width="76.950794"
       height="65.408175"
       id="rect2-07" /><rect
       x="-720.96467"
       y="53.052118"
       width="408.09321"
       height="346.92526"
       id="rect1-3" /><rect
       x="-301.98897"
       y="553.64645"
       width="133.31045"
       height="66.655223"
       id="rect4-49" /><rect
       x="-242.395"
       y="350.12611"
       width="119.27373"
       height="126.96881"
       id="rect3-6" /><rect
       x="-804.1358"
       y="313.57449"
       width="76.950794"
       height="65.408175"
       id="rect2-88" /><rect
       x="-720.96467"
       y="53.052118"
       width="408.09321"
       height="346.92526"
       id="rect1-2" /><rect
       x="-301.98897"
       y="553.64645"
       width="133.31045"
       height="66.655223"
       id="rect4-45" /><rect
       x="-242.395"
       y="350.12611"
       width="119.27373"
       height="126.96881"
       id="rect3-51" /><linearGradient
       inkscape:collect="always"
       xlink:href="#linearGradient7"
       id="linearGradient8"
       x1="0"
       y1="152.39999"
       x2="541.86664"
       y2="152.39999"
       gradientUnits="userSpaceOnUse" /></defs><g
     inkscape:label="Ebene 1"
     inkscape:groupmode="layer"
     id="layer1"><rect
       style="mix-blend-mode:normal;fill:url(#linearGradient8);fill-opacity:1;stroke-width:2"
       id="rect5"
       width="541.86664"
       height="304.79999"
       x="0"
       y="0" /><g
       inkscape:label="Ebene 1"
       id="layer1-5"
       transform="matrix(1.1053097,0,0,1.1053097,153.99896,117.01269)"><text
         xml:space="preserve"
         style="font-style:normal;font-variant:normal;font-weight:300;font-stretch:normal;font-size:3.175px;line-height:0;font-family:Orbitron;-inkscape-font-specification:'Orbitron Light';text-align:start;letter-spacing:-0.132292px;writing-mode:lr-tb;direction:ltr;text-anchor:start;fill:#00ffff;stroke:#00bee6;stroke-width:2"
         x="99.763489"
         y="30.539846"
         id="text1-2"><tspan
           sodipodi:role="line"
           id="tspan1-7"
           style="font-style:normal;font-variant:normal;font-weight:300;font-stretch:normal;font-family:Orbitron;-inkscape-font-specification:'Orbitron Light';stroke-width:2"
           x="99.763489"
           y="30.539846" /></text><path
         id="text2-6"
         style="font-weight:300;font-size:24.6649px;line-height:0;font-family:Orbitron;-inkscape-font-specification:'Orbitron Light';letter-spacing:6.61458px;stroke-width:15.537"
         d="m 20.082492,12.029822 v 17.759064 h 1.997519 V 14.299324 l 8.114895,9.643858 8.114895,-9.643858 v 2.284745 l 1.997519,-2.381086 v -2.173161 h -2.737666 l -7.374748,8.781057 -7.374748,-8.781057 z m 32.512571,0 c -0.411081,0 -0.797518,0.08252 -1.15927,0.24695 -0.361752,0.147989 -0.674135,0.353368 -0.937227,0.616461 -0.263093,0.263092 -0.476735,0.575439 -0.641168,0.937191 -0.147984,0.361752 -0.222044,0.74806 -0.222044,1.159141 v 6.314604 1.997552 6.487165 h 1.997519 v -6.487165 -1.997552 -6.314604 c 0,-0.263092 0.09066,-0.484975 0.271533,-0.665851 0.197319,-0.197319 0.427565,-0.29573 0.690657,-0.29573 H 64.43434 c 0.263093,0 0.484817,0.09841 0.665693,0.29573 0.197318,0.180876 0.296059,0.402759 0.296059,0.665851 v 6.314604 h 4.38e-4 v 1.997552 h -4.38e-4 v 6.487165 h 1.997957 v -6.487165 -1.997552 -6.314604 c 0,-0.411081 -0.08214,-0.797389 -0.246569,-1.159141 -0.147989,-0.361752 -0.353551,-0.674099 -0.616643,-0.937191 -0.263093,-0.263093 -0.575476,-0.468472 -0.937227,-0.616461 -0.361752,-0.164429 -0.748188,-0.24695 -1.15927,-0.24695 z m 38.604984,0 c -1.085256,1.282575 -2.187115,2.597975 -3.305257,3.946323 -1.118142,1.331905 -2.219564,2.639358 -3.30482,3.921933 h -5.722338 v -2.592061 h -2.022483 v 2.592061 9.890808 h 2.022483 V 21.92063 h 5.722338 l 6.610077,7.868256 h 2.589636 l -7.448763,-8.879837 7.424237,-8.879227 z m 14.162193,0 c -0.41108,0 -0.79752,0.08252 -1.15927,0.24695 -0.36175,0.147989 -0.67457,0.353368 -0.93766,0.616461 -0.26309,0.263092 -0.47674,0.575439 -0.64117,0.937191 -0.14799,0.361752 -0.22204,0.74806 -0.22204,1.159141 v 6.314604 1.997552 6.487165 h 1.99795 v -6.487165 -1.997552 -6.314604 c 0,-0.263092 0.0907,-0.484975 0.27154,-0.665851 0.19732,-0.197319 0.42756,-0.29573 0.69065,-0.29573 h 11.83884 c 0.26309,0 0.48526,0.09841 0.66613,0.29573 0.19728,0.180876 0.29606,0.402759 0.29606,0.665851 v 6.314604 1.997552 6.487165 h 1.99752 v -6.487165 -1.997552 -6.314604 c 0,-0.411081 -0.0821,-0.797389 -0.24657,-1.159141 -0.14799,-0.361752 -0.35355,-0.674099 -0.61664,-0.937191 -0.26309,-0.263093 -0.57548,-0.468472 -0.93723,-0.616461 -0.36175,-0.164429 -0.74819,-0.24695 -1.15927,-0.24695 z m 24.22513,0 v 17.759064 h 1.99795 V 14.299324 l 13.02308,15.489562 h 2.73766 v -10.52678 h -1.99796 v 8.257279 L 132.32503,12.029822 Z m 27.1603,0 v 17.759064 h 1.99796 V 12.029822 Z m -116.44035,5.834729 -1.997519,2.381087 v 9.543248 h 1.997519 z"
         transform="scale(1.1799446,0.84749742)" /><path
         id="text2-8-1"
         style="font-weight:300;font-size:24.7393px;line-height:0;font-family:Orbitron;-inkscape-font-specification:'Orbitron Light';letter-spacing:6.61458px;stroke-width:15.584"
         d="m 20.082492,39.678475 v 17.812722 h 2.003651 V 41.954683 l 8.13942,9.673126 8.138982,-9.673126 v 2.515842 l 2.004089,-2.388403 v -2.403647 h -2.745987 l -7.397084,8.807276 -7.397084,-8.807276 z m 32.49155,0 c -0.412322,0 -0.799932,0.08263 -1.162775,0.247559 -0.362843,0.148436 -0.675968,0.354404 -0.939854,0.61829 -0.263886,0.263886 -0.47843,0.577397 -0.643358,0.94024 -0.148436,0.362843 -0.222482,0.750478 -0.222482,1.162799 v 11.874945 c 0,0.412322 0.07405,0.799957 0.222482,1.1628 0.164928,0.362843 0.379472,0.676353 0.643358,0.940239 0.263886,0.263885 0.577011,0.478361 0.939854,0.64329 0.362843,0.148436 0.750453,0.22256 1.162775,0.22256 h 4.104527 3.694163 4.076498 c 0.412321,0 0.799931,-0.07412 1.162774,-0.22256 0.362843,-0.164929 0.675969,-0.379405 0.939855,-0.64329 0.263886,-0.263886 0.469958,-0.577396 0.618394,-0.940239 0.164929,-0.362843 0.247446,-0.750478 0.247446,-1.1628 V 42.647363 c 0,-0.412321 -0.08252,-0.799956 -0.247446,-1.162799 -0.148436,-0.362843 -0.354508,-0.676354 -0.618394,-0.94024 -0.263886,-0.263886 -0.577012,-0.469854 -0.939855,-0.61829 -0.362843,-0.164928 -0.750453,-0.247559 -1.162774,-0.247559 z m 23.288771,0 v 2.004259 h 7.916938 2.003651 7.891974 v -2.004259 z m 26.307167,0 v 17.812722 h 2.00409 V 39.678475 Z m 14.95183,0 c -0.41232,0 -0.79993,0.08263 -1.16277,0.247559 -0.36285,0.148436 -0.67597,0.354404 -0.93986,0.61829 -0.26388,0.263886 -0.47843,0.577397 -0.64336,0.94024 -0.14843,0.362843 -0.22291,0.750478 -0.22291,1.162799 v 11.874945 c 0,0.412322 0.0745,0.799957 0.22291,1.1628 0.16493,0.362843 0.37948,0.676353 0.64336,0.940239 0.26389,0.263885 0.57701,0.478361 0.93986,0.64329 0.36284,0.148436 0.75045,0.22256 1.16277,0.22256 h 4.09051 3.69417 4.09007 c 0.41232,0 0.79994,-0.07412 1.16278,-0.22256 0.36284,-0.164929 0.6764,-0.379405 0.94029,-0.64329 0.26389,-0.263886 0.46996,-0.577396 0.61839,-0.940239 0.16493,-0.362843 0.24745,-0.750478 0.24745,-1.1628 V 42.647363 c 0,-0.412321 -0.0825,-0.799956 -0.24745,-1.162799 -0.14843,-0.362843 -0.3545,-0.676354 -0.61839,-0.94024 -0.26389,-0.263886 -0.57745,-0.469854 -0.94029,-0.61829 -0.36284,-0.164928 -0.75046,-0.247559 -1.16278,-0.247559 z m 24.17958,0 v 17.812722 h 2.00365 V 41.954683 l 13.06249,15.536514 h 2.74598 V 46.910758 h -2.00365 v 8.30423 L 144.04737,39.678475 Z M 52.574042,41.682734 H 64.44923 c 0.263886,0 0.486462,0.09903 0.667884,0.296949 0.197914,0.181422 0.296934,0.403794 0.296934,0.66768 v 11.874945 c 0,0.263886 -0.09902,0.494765 -0.296934,0.69268 -0.181422,0.181421 -0.403998,0.27195 -0.667884,0.27195 h -4.076498 -3.694163 -4.104527 c -0.263886,0 -0.494495,-0.09053 -0.69241,-0.27195 -0.181421,-0.197915 -0.272409,-0.428794 -0.272409,-0.69268 V 42.647363 c 0,-0.263886 0.09099,-0.486258 0.272409,-0.66768 0.197915,-0.197914 0.428524,-0.296949 0.69241,-0.296949 z m 64.547768,0 h 11.87475 c 0.26389,0 0.48647,0.09903 0.66789,0.296949 0.19791,0.181422 0.29693,0.403794 0.29693,0.66768 v 11.874945 c 0,0.263886 -0.099,0.494765 -0.29693,0.69268 -0.18142,0.181421 -0.404,0.27195 -0.66789,0.27195 h -4.09007 -3.69417 -4.09051 c -0.26388,0 -0.49493,-0.09053 -0.69285,-0.27195 -0.18142,-0.197915 -0.27197,-0.428794 -0.27197,-0.69268 V 42.647363 c 0,-0.263886 0.0906,-0.486258 0.27197,-0.66768 0.19792,-0.197914 0.42897,-0.296949 0.69285,-0.296949 z m -33.342059,1.899991 v 2.720719 11.187753 h 2.003651 V 46.303444 43.582725 Z m -43.411117,2.160965 -2.001023,2.384745 -0.0031,-0.0049 v 9.36764 H 40.3686 Z"
         transform="scale(1.1799446,0.84749742)" /></g><text
       xml:space="preserve"
       style="font-size:7.39794px;line-height:0;font-family:'Space Grotesk';-inkscape-font-specification:'Space Grotesk';text-align:start;letter-spacing:0px;writing-mode:lr-tb;direction:ltr;text-anchor:start;fill:#7f9c1c;fill-opacity:1;stroke-width:4.66011"
       x="191.1557"
       y="186.51193"
       id="text2"><tspan
         sodipodi:role="line"
         id="tspan2"
         style="font-style:normal;font-variant:normal;font-weight:normal;font-stretch:normal;font-family:Michroma;-inkscape-font-specification:Michroma;fill:#7f9c1c;fill-opacity:1;stroke-width:4.66011"
         x="191.1557"
         y="186.51193">[dev-log for a modular fan system]</tspan></text></g></svg>
